<?xml version="1.0" encoding="UTF-8"?><svg id="a" xmlns="http://www.w3.org/2000/svg" viewBox="0 0 318.82 174.62"><defs><style>.b{fill:#fff;stroke-width:0px;}</style></defs><path class="b" d="m318.75,89.04c-.51-2.3-3.79-6.58-9.85-12.85-.75-.83-1.76-1.19-3.07-1.09-1.31.09-2.75.31-4.25.64-1.26.27-7.72,1.99-19.39,5.14-.16.03-.27-.11-.32-.42-.69-3.18,4.14-24.23,14.56-63.14l2.3-8.7c-.27-1.15-.24-2.23.11-3.23.24-.37.32-.75.24-1.12-.19-.67-2.08-1.46-5.69-2.37-5.93-1.38-9.16-2.01-9.67-1.9-.21.05-.59,1.05-1.07,3.02-.09.67-2.52,10.92-7.29,30.74-.23-.84-.49-1.7-.83-2.6-.51-1.34-.99-2.88-1.42-4.65-.27-1.15-.45-2.34-.64-3.55-.64-2.54-5.74-2.77-15.22-.69-7.58,1.66-16.26,4.61-26.12,8.83-8.76,3.77-16.34,8.17-22.78,13.19-.37.29-.53.6-.45.91.29,1.14,2.99,2.26,8.12,3.39,4.59,1.02,7.42,1.46,8.49,1.34.37-.08.51-.28.43-.59-.16-.73.45-1.38,1.82-1.95l.03.15c-.43,1.35-.72,2.18-.93,2.5-3.34,9.81-5.45,14.98-6.36,15.5l-3.53,1.92c-.75.55-1.98,2.75-3.63,6.62-.7,1.46-1.24,2.53-1.64,3.25-.2-.56-.44-1.2-.71-1.92-1.39-4.39-2.88-7.46-4.49-9.23-1.58-1.76-5.02-2.06-10.28-.91-3.77.83-8.81,2.28-15.2,4.39,0-.27.13-.52.43-.75,7.37-7.74,12.79-14.17,16.26-19.31,2.22-3.33,3.15-6.04,2.75-8.15-.67-1.72-1.2-3.35-1.58-4.9-.77-2.51-1.6-4.63-2.51-6.34-.88-1.72-2.24-2.92-4.09-3.62-2.22-.77-5.5-.68-9.88.28-6.46,1.42-16.4,4.86-29.8,10.37-4.25,1.75-7.21,2.88-8.84,3.41-.32.07-.51.15-.56.24-.05.1-.13.15-.19.16-1.51,1.95-3.13,4.5-4.85,7.64-1.58.23-3.34.56-5.3.99-7.58,1.65-16.26,4.59-26.12,8.83-5.19,2.23-9.96,4.69-14.34,7.37,6.54-9.36,9.38-16.1,8.49-20.2-.29-1.3-.96-2.36-2-3.17-3.45-2.52-8.57-3.95-15.41-4.25-6.81-.32-14.69.5-23.61,2.46-8.04,1.76-16.61,4.45-25.72,8.08-14.21,5.74-23.5,9.79-27.91,12.18-3.77,2.07-5.5,3.77-5.21,5.07.08.42.24.81.51,1.2.24.38.48.8.67,1.24,2.03,5.25,3.23,8.29,3.66,9.13.37.84.88,1.2,1.47,1.07.61-.14,1.5-.77,2.59-1.89,5.31-5.09,13.59-9.51,24.92-13.23.19.83.13,1.64-.11,2.4-4.54,14.5-8.52,30.62-11.91,48.37-1.31,7.06-2.24,11.04-2.8,11.93-5.96,6-10.1,10.18-12.34,12.54-1.34,1.44-2.22,2.57-2.62,3.41-.43.83-.56,1.64-.4,2.42.16.68.51,1.48,1.04,2.4.88,1.56,1.87,4.32,2.96,8.29.11.52.35.79.75.82.37.02.88-.04,1.52-.17,1.36-.29,3.74-.95,7.18-1.98.43-.04.69.2.83.72-.77,11.76-1.04,18.19-.8,19.29.11.52.53.69,1.28.54,1.09-.24,3.12-1.15,6.12-2.73,1.71-.92,3.87-2.03,6.49-3.31.29-.12.59-.39.8-.79.27-.41.32-.84.21-1.31-.08-.37-.32-.69-.75-.95-.4-.27-.64-.55-.72-.86-.05-.26.16-2.4.61-6.41.48-4.01.69-6.53.69-7.57.11-1.01,4.09-2.37,11.96-4.09,3.82-.83,9.56-1.68,17.28-2.55,7.72-.87,13.06-1.32,16.05-1.38,3.02-.05,4.62.36,4.81,1.24.08.37.29.51.67.43.67-.15,4.59-3.5,11.75-10.04.15-.12.19-.28.19-.47,1.3.62,2.68,1.16,4.19,1.6,2.59.77,5.07,1.26,7.4,1.46,2.35.19,4.09.17,5.23-.08,2.22-.87,5.26-3.12,9.13-6.75,5.82-5.37,8.95-8.58,9.45-9.61.21-.49.27-.96.16-1.44l-.32-1.08c-.69-1.7-1.5-4.61-2.4-8.73-.37-1.56-.96-2.25-1.76-2.08-.83.18-2.08,1.03-3.77,2.55-2.38,2.16-6.94,6.54-13.7,13.17-.51.43-1.23.75-2.16.96-1.31.29-2.11.05-2.38-.71v-.33c1.09-7.07,2.19-12.38,3.28-15.93,1.12-3.55,2.51-5.99,4.22-7.32,1.71-1.32,4.11-2.37,7.21-3.12,3.07-.76,6.22-1.52,9.37-2.26l1.44-.23c1.74-.44,2.56-.92,2.46-1.44s-.69-1.24-1.79-2.15c-2.27-1.91-4.09-3.81-5.5-5.69-.72-1.1-1.44-1.92-2.14-2.44-.69-.53-1.6-.67-2.75-.42-.67.15-1.66.44-2.91.88-.59.13-.88.14-.91.03.16-.53.48-1.4.99-2.6.61-1.5,1.04-2.27,1.31-2.33.43.01.77.07,1.04.18.27.1.48.14.64.11.19-.1.37-.63.48-1.58.16-1.3.13-2.36-.05-3.2-.24-1.14-.53-1.96-.8-2.48-.32-.51-.51-.91-.59-1.23-.19-.88,1.04-1.67,3.69-2.36,3.71-1.03,6.6-1.88,8.71-2.56,1.58-.51,2.94-.89,4.09-1.15.8-.17,1.36-.19,1.71-.05,5.08,1.65,8.64,2.47,10.77,2.48-1.64,6.75-3.74,19.26-6.25,37.54-.19,1.46-.37,2.61-.56,3.45-.21.84-.29,1.5-.24,1.98.08.31.51.91,1.28,1.77,1.04.75,3.04,3.1,5.98,7.06.19.79-.03,1.24-.61,1.37-.29.07-.53.06-.69-.02-.13-.07-.35-.08-.61-.02-1.42.31-3.82,3.57-7.21,9.77-2.16,3.91-3.18,6.08-3.1,6.5.08.31.72.34,1.92.08,2.14-.37,5.69-.43,10.6-.19.93-.21,3.69-1.88,8.25-5,11.59-7.84,23.21-16.67,34.88-26.49,12.99-10.94,19.76-18.38,20.38-22.32.54-.07,1.17-.19,1.89-.35l1.82-.39.19.45-.13.61c-2.16,7.26-2.8,13.35-1.9,18.29.51,2.02,1.76,3.67,3.77,4.96,2,1.28,4.27,2.32,6.89,3.08,2.59.77,5.07,1.26,7.4,1.46,2.35.2,4.11.17,5.23-.08,2.22-.87,5.26-3.11,9.13-6.74,2.17-2,3.96-3.7,5.39-5.1-.52,1.39-1,2.45-1.41,3.16-.45.92-.64,1.54-.56,1.85.05.26.51.35,1.36.27,6.04-.17,12.23-.95,18.59-2.34,5.9-1.29,14.48-3.8,25.75-7.52,2.67-1.07,4.67-1.76,6.04-2.06,1.15-.25,1.79-.2,1.92.15-.08.13-.11.29-.05.5.11.47,4.65.44,13.67-.11l.88-.11c1.04-.45,1.47-1.2,1.23-2.24Zm-273.69-4.53c1.66-5.39,3.15-10.45,4.49-15.16,1.31-4.72,1.84-7.7,1.55-8.96-.03-.21-.37-.51-1.01-.92-1.12-.63-1.71-1.1-1.79-1.42,10.2-3.38,18.37-5.74,24.54-7.09,5.58-1.22,8.6-.84,9.03,1.15.43,1.98-1.55,5.72-5.93,11.21-4.35,5.49-10.9,13.07-19.52,22.73-.75.87-1.95,2.23-3.63,4.07-1.68,1.84-3.45,3.81-5.34,5.88-1.84,2.08-3.47,3.86-4.89,5.34-1.39,1.48-2.14,2.23-2.24,2.26l-.13-.22c-.24-1.05,1.39-7.34,4.89-18.87Zm55.39-7.03c-3.34,9.81-5.45,14.97-6.36,15.5l-3.53,1.92c-.75.55-1.98,2.76-3.63,6.62-.91,1.9-1.55,3.16-1.98,3.79-.85,1.5-1.26,2.52-1.12,3.04.13.63,1.58.63,4.33.03l1.82-.39.19.45-.13.61c-2.16,7.26-2.8,13.36-1.9,18.29.39,1.55,1.21,2.87,2.47,3.98-1.94-.62-4.63-1.07-8.07-1.36-4.01-.33-10.82-.12-20.46.62-9.67.74-18.69,2-27.11,3.79-.83.19-1.28.07-1.39-.35-.24-1.1,1.6-3.86,5.5-8.3,3.87-4.43,8.84-9.82,14.82-16.16,14.23-15.3,24.59-27.01,31.09-35.12,1.34.53,3.21,1.07,5.63,1.59,4.59,1.02,7.42,1.46,8.49,1.34.37-.08.51-.28.43-.59-.16-.73.45-1.38,1.82-1.95l.03.15c-.43,1.35-.72,2.18-.93,2.5Zm64.23-20.97c.29-2.88.59-5,.91-6.35.29-1.35.8-2.27,1.52-2.75.72-.49,1.84-.95,3.39-1.4.88-.19,1.95-.51,3.23-.95,5.42-1.96,8.84-3.08,10.26-3.39.93-.21,1.42-.15,1.5.16.11.52-1.79,2.94-5.72,7.24-3.85,4.07-9.35,10.36-16.45,18.86.61-4.73,1.04-8.53,1.36-11.41Zm23.61,30.63c-4.41,3.87-9.88,8.38-16.37,13.55-6.49,5.17-13.09,10.1-19.76,14.78l-.13-.14c2.83-5.05,4.43-7.94,4.75-8.67.61-10.96,2-16.68,4.19-17.16.69-.15,1.5-.11,2.4.13,1.9.4,3.74.41,5.5.03,2.67-.58,6.52-1.92,11.51-3.99,5.39-2.16,10.2-3.73,14.48-4.73.05.26-2.14,2.33-6.57,6.2Zm78.22-15.3c-1.04,5.7-1.2,10.24-.45,13.63-.11.73-1.09,1.31-2.99,1.72-.88.19-1.92.36-3.1.51l-2.19.4c-1.35.29-2.35.62-3.03.99-.57-1.74-1.21-4.2-1.91-7.37-.37-1.56-.96-2.25-1.76-2.08-.83.18-2.08,1.03-3.77,2.55-2.38,2.16-6.94,6.54-13.7,13.17-.51.44-1.23.75-2.16.96-1.31.29-2.11.05-2.38-.71v-.33c1.09-7.08,2.19-12.38,3.28-15.93,1.12-3.55,2.51-6,4.22-7.32,1.71-1.32,4.11-2.37,7.21-3.12,3.07-.76,6.22-1.52,9.37-2.26l1.44-.23c1.74-.44,2.56-.92,2.46-1.44-.11-.52-.69-1.24-1.79-2.15-2.27-1.91-4.09-3.81-5.5-5.69-.72-1.09-1.44-1.92-2.14-2.44-.69-.53-1.6-.67-2.75-.43-.67.15-1.66.45-2.91.89-.59.13-.88.14-.91.03.16-.52.48-1.4.99-2.6.61-1.5,1.04-2.28,1.31-2.33.43.01.77.07,1.04.18.29.1.48.14.64.11.21-.1.37-.63.48-1.58.16-1.3.13-2.35-.05-3.19-.24-1.15-.51-1.98-.8-2.48-.32-.51-.51-.92-.59-1.23-.19-.89,1.04-1.68,3.69-2.36,3.71-1.03,6.6-1.88,8.71-2.56,1.58-.51,2.94-.89,4.09-1.15.8-.17,1.36-.18,1.71-.05,6.14,2,10.1,2.8,11.94,2.4.02,0,.04-.01.06-.02-.54,2.26-1.11,4.63-1.71,7.11-2.96,11.91-4.97,20.71-6.04,26.41Z"/></svg>